<?xml version="1.0" standalone="no"?>
<!DOCTYPE svg PUBLIC "-//W3C//DTD SVG 20010904//EN"
 "http://www.w3.org/TR/2001/REC-SVG-20010904/DTD/svg10.dtd">
<svg version="1.0" xmlns="http://www.w3.org/2000/svg"
 width="512.000000pt" height="800.000000pt" viewBox="0 0 512.000000 800.000000"
 preserveAspectRatio="xMidYMid meet">

<g transform="translate(0.000000,800.000000) scale(0.100000,-0.100000)"
fill="#000000" stroke="none">
<path d="M1980 7817 c-27 -8 -209 -183 -797 -771 -444 -442 -770 -775 -779
-795 -44 -93 -26 -191 50 -266 73 -73 154 -92 247 -60 37 13 131 102 582 553
l537 537 0 -1289 c0 -983 3 -1298 12 -1330 16 -55 99 -138 154 -154 96 -28
182 -4 247 68 24 26 49 66 55 88 9 29 12 361 12 1328 l0 1289 543 -541 c578
-576 563 -564 659 -564 124 0 238 115 238 240 0 95 28 64 -789 882 -661 663
-771 770 -810 783 -50 17 -109 18 -161 2z"/>
<path d="M2207 4066 c-854 -147 -1380 -242 -1418 -256 -195 -71 -335 -215
-407 -419 l-27 -76 -3 -1217 c-3 -1364 -6 -1293 70 -1447 82 -166 251 -297
434 -336 104 -22 3364 -22 3469 0 237 50 439 252 490 491 22 103 22 2085 0
2188 -48 225 -231 420 -453 482 l-62 17 0 117 c0 215 -56 356 -195 495 -127
127 -258 184 -440 190 -94 4 -184 -10 -1458 -229z m1588 -125 c70 -35 121 -87
157 -160 19 -38 24 -66 26 -163 l4 -118 -1524 0 c-837 0 -1541 -2 -1563 -5
l-40 -5 31 14 c16 8 388 76 825 150 437 75 1039 179 1339 231 619 107 638 109
745 56z m493 -777 c76 -25 140 -79 181 -154 l36 -65 0 -1045 0 -1045 -27 -51
c-40 -76 -70 -107 -140 -145 l-63 -34 -1685 0 -1685 0 -50 25 c-64 31 -124 91
-155 155 l-25 50 -3 1025 c-2 919 -1 1030 14 1074 32 100 105 175 204 209 40
14 221 16 1696 17 1494 0 1656 -2 1702 -16z"/>
<path d="M3635 2211 c-92 -24 -173 -90 -215 -176 -34 -69 -35 -198 -2 -265 34
-71 75 -114 144 -151 58 -31 70 -34 148 -33 72 0 93 4 136 26 75 40 107 70
145 140 31 58 34 70 34 148 0 78 -3 90 -34 148 -57 104 -144 160 -260 167 -36
2 -79 1 -96 -4z"/>
</g>
</svg>
