<?xml version="1.0" standalone="no"?>
<!DOCTYPE svg PUBLIC "-//W3C//DTD SVG 20010904//EN"
 "http://www.w3.org/TR/2001/REC-SVG-20010904/DTD/svg10.dtd">
<svg version="1.0" xmlns="http://www.w3.org/2000/svg"
 width="512.000000pt" height="800.000000pt" viewBox="0 0 512.000000 800.000000"
 preserveAspectRatio="xMidYMid meet">

<g transform="translate(0.000000,800.000000) scale(0.100000,-0.100000)"
fill="#000000" stroke="none">
<path d="M1986 7815 c-56 -20 -107 -65 -136 -121 l-25 -49 -3 -1292 c-1 -711
-6 -1293 -11 -1293 -4 0 -238 234 -520 519 -559 568 -563 571 -670 571 -178 0
-295 -186 -215 -342 25 -48 1478 -1514 1533 -1546 38 -22 58 -27 116 -27 49 0
81 6 105 19 50 27 1516 1481 1548 1536 22 37 27 57 27 115 0 59 -5 78 -28 118
-53 90 -150 135 -251 116 -27 -5 -61 -17 -76 -26 -15 -10 -264 -253 -554 -539
l-526 -521 0 1298 1 1299 -24 48 c-52 105 -180 157 -291 117z"/>
<path d="M2207 4066 c-854 -147 -1380 -242 -1418 -256 -195 -71 -335 -215
-407 -419 l-27 -76 -3 -1217 c-3 -1364 -6 -1293 70 -1447 82 -166 251 -297
434 -336 104 -22 3364 -22 3469 0 237 50 439 252 490 491 22 103 22 2085 0
2188 -48 225 -231 420 -453 482 l-62 17 0 117 c0 215 -56 356 -195 495 -127
127 -258 184 -440 190 -94 4 -184 -10 -1458 -229z m1588 -125 c70 -35 121 -87
157 -160 19 -38 24 -66 26 -163 l4 -118 -1524 0 c-837 0 -1541 -2 -1563 -5
l-40 -5 31 14 c16 8 388 76 825 150 437 75 1039 179 1339 231 619 107 638 109
745 56z m493 -777 c76 -25 140 -79 181 -154 l36 -65 0 -1045 0 -1045 -27 -51
c-40 -76 -70 -107 -140 -145 l-63 -34 -1685 0 -1685 0 -50 25 c-64 31 -124 91
-155 155 l-25 50 -3 1025 c-2 919 -1 1030 14 1074 32 100 105 175 204 209 40
14 221 16 1696 17 1494 0 1656 -2 1702 -16z"/>
<path d="M3635 2211 c-92 -24 -173 -90 -215 -176 -34 -69 -35 -198 -2 -265 34
-71 75 -114 144 -151 58 -31 70 -34 148 -33 72 0 93 4 136 26 75 40 107 70
145 140 31 58 34 70 34 148 0 78 -3 90 -34 148 -57 104 -144 160 -260 167 -36
2 -79 1 -96 -4z"/>
</g>
</svg>
